<mxfile host="app.diagrams.net" modified="2024-03-19T09:09:55.078Z" agent="Mozilla/5.0 (Windows NT 10.0; Win64; x64) AppleWebKit/537.36 (KHTML, like Gecko) Chrome/122.0.0.0 Safari/537.36" version="24.0.7" etag="_6gf6YBSqIHvOwWsGvCF" type="github">
  <diagram name="Page-1" id="vGbsZwq4MOvHKecMX6Ui">
    <mxGraphModel>
      <root>
        <mxCell id="0" />
        <mxCell id="1" parent="0" />
      </root>
    </mxGraphModel>
  </diagram>
</mxfile>
